# xmcd CD database file
#
# Track frame offsets:
#	150
#	14533
#	27241
#	40044
#	55171
#	66148
#	81334
#	93821
#	108358
#	124458
#
# Disc length: 1855 seconds
#
# Revision: 0
# Processed by: cddbd v1.5.2PL0 Copyright (c) Steve Scherf et al.
# Submitted via: CDex 1.70beta2
#
DISCID=7d073d0a
DTITLE=Magiczny świat jazzu - Duety
DYEAR=2009
DGENRE=Jazz
TTITLE0=Ella Fitgerald, Louis Armstrong - Oops!
TTITLE1=Bin Crosby, Peggy Lee - Watermelon Weather
TTITLE2=Mel Torme, Peggy Lee - The Old Master Painter
TTITLE3=Billie Holiday, Louis Armstrong - My Sweet Hunk O'Trash
TTITLE4=Fred Astaire, Bing Crosby - I'll Capture Your Heart
TTITLE5=Louis Armstrong, Bing Crosby - A Kiss To Build A Dream On
TTITLE6=Sarah Vaughan, Billy Eckstine - Dedicated To You
TTITLE7=Ella Fitzgerald, Louis Armstrong - Can Any one Explain?
TTITLE8=Mel Torme, The Starlighters - Got The Gate On The Golden Gate
TTITLE9=Ella Fitzgerald, Louis Armstrong - Would You Like To Take A Walk?
EXTD=YEAR: 2009
EXTT0=
EXTT1=
EXTT2=
EXTT3=
EXTT4=
EXTT5=
EXTT6=
EXTT7=
EXTT8=
EXTT9=
PLAYORDER=
